<svg xmlns="http://www.w3.org/2000/svg" viewBox="0 0 299.75 117.35"><defs><style>.a{fill:#478df6;}.b{fill:#01e7fe;}.c{fill:#020284;}.d{fill:#010184;}.e{fill:#fd5723;}.f{fill:#030385;}.g{fill:#e31f27;}.h{fill:#02a54b;}.i{fill:#15158c;}.j{fill:#18188d;}.k{fill:#14148b;}</style></defs><title>sea-logo</title><path class="a" d="M117.11,55.41a57.5,57.5,0,0,1-14.82,42.28c-.59,0-1.19,0-1.78.1a103.84,103.84,0,0,1-19.73.55,103.88,103.88,0,0,1-32.27-7.17A111.56,111.56,0,0,0,21,83.88a142.78,142.78,0,0,0-15.6-1,23.94,23.94,0,0,1-2.53-6.1,49,49,0,0,1-2.41-11c2.64.72,5.27,1.46,7.92,2.15A103.91,103.91,0,0,0,28.91,71a102,102,0,0,0,12.33-.13,113.74,113.74,0,0,0,21.41-3.56c5.18-1.36,10.1-3.44,15.12-5.28A110.32,110.32,0,0,1,117.11,55.41Z"/><path class="b" d="M117.11,55.41A110.32,110.32,0,0,0,77.77,62c-5,1.83-9.94,3.91-15.12,5.28a113.74,113.74,0,0,1-21.41,3.56A102,102,0,0,1,28.91,71,103.91,103.91,0,0,1,8.38,67.89C5.73,67.21,3.1,66.46.46,65.75a57.72,57.72,0,0,1,6.6-35,3,3,0,0,1,.34-.43c.32,0,.64.06,1,.07a108.65,108.65,0,0,1,40.73,8.14A60.77,60.77,0,0,0,59.47,42c.42.15.84.34,1.27.45A107.32,107.32,0,0,0,96.87,45.7a104.69,104.69,0,0,0,18.08-3A49.91,49.91,0,0,1,117.11,55.41Z"/><path class="c" d="M299.71,58.83q0,9.89,0,19.79c0,.41,0,.82-.07,1.23-.4,4.57-3.92,6.87-8.28,5.43-2.26-.75-3.2-2.59-3.85-4.67-.14-.46-.13-1-.8-1.14s-.81.31-1.12.65c-5.55,6.08-12.92,7.76-20.78,4.61-7.66-3.06-12.08-9-14.17-16.73a31.77,31.77,0,0,1,2.86-24.7c4.63-8.24,13.17-12.73,22-11.56a14.94,14.94,0,0,1,10.07,5.59c.33.42.61,1,1.3.8s.56-.79.67-1.25a6.62,6.62,0,0,1,9.69-3.9,5,5,0,0,1,2.17,3.21,19.28,19.28,0,0,1,.39,4.64q0,9,0,18Zm-12.92.07A19.93,19.93,0,0,0,284,48.68c-4.5-7.16-14.27-7.37-18.68-.15-4.1,6.71-4.17,13.82,0,20.56,4.56,7.42,14.64,7.05,19-.47A20.13,20.13,0,0,0,286.79,58.89Z"/><path class="d" d="M5.4,82.87a142.78,142.78,0,0,1,15.6,1,111.56,111.56,0,0,1,27.51,7.28,103.88,103.88,0,0,0,32.27,7.17,103.84,103.84,0,0,0,19.73-.55c.59-.07,1.19-.07,1.78-.1A56.28,56.28,0,0,1,82,112.41,56.61,56.61,0,0,1,46.8,116c-18.7-4-32.34-14.83-41-31.9A2,2,0,0,1,5.4,82.87Z"/><path class="c" d="M220.87,62.93H205.76c-1.72,0-1.85.18-1.49,1.83,1.24,5.54,4.89,8.6,10.25,9.82a17.41,17.41,0,0,0,11.76-1.43c2.1-1,4.12-2.19,6.22-3.21,2.76-1.34,5-.81,6.65,1.49s1.48,4.71-.57,7a21.08,21.08,0,0,1-8.15,5.19c-7,2.73-14.2,3.64-21.5,1.4a23.91,23.91,0,0,1-17-17.51c-2.29-8.44-1.57-16.65,3.22-24.17a24.6,24.6,0,0,1,41.62-.48,25.21,25.21,0,0,1,4.67,14.39c0,4.12-1.59,5.72-5.76,5.73C230.76,62.94,225.81,62.93,220.87,62.93ZM216,54.78c3.71,0,7.42,0,11.13,0,.94,0,1.53-.22,1.35-1.33-.55-3.4-1.77-6.5-4.53-8.68a11.81,11.81,0,0,0-12.66-1.65c-4.54,1.95-6.72,5.72-7.46,10.45-.16,1,.45,1.22,1.33,1.21C208.75,54.76,212.37,54.78,216,54.78Z"/><path class="e" d="M59.47,42a60.77,60.77,0,0,1-10.39-3.41A108.65,108.65,0,0,0,8.35,30.4c-.32,0-.64,0-1-.07a40.8,40.8,0,0,1,5.74-8.53,37.17,37.17,0,0,0,4.59.64A106,106,0,0,0,31.89,23a118,118,0,0,0,16.28-1.68,92.63,92.63,0,0,0,18.55-5.08A116.32,116.32,0,0,1,88,9.67c.49-.09,1.27.07,1.46-.75a48.29,48.29,0,0,1,10.22,7.94,53.06,53.06,0,0,1,10.2,13.48,117.61,117.61,0,0,0-27.75,3.81C74.36,36.17,67.15,39.74,59.47,42Z"/><path class="f" d="M163.34,86.2c-5.59-.37-11.5-1.75-16.45-5.83-3.09-2.55-3.29-5.79-.71-8.6,1.67-1.82,4.06-2.2,6.84-1.12a41.73,41.73,0,0,1,4.75,2.45,14.83,14.83,0,0,0,9,1.82c2.63-.31,4.13-1.39,4.54-3.29.54-2.47-.18-3.94-2.68-5.4a61,61,0,0,0-8.34-3.5,40,40,0,0,1-8.63-4.45c-7.9-5.65-6.16-15.95-1.7-20.74,3.76-4,8.54-5.72,13.88-6a25.09,25.09,0,0,1,14.84,3.64c3.15,2,4.45,4.83,3.61,7.71a5,5,0,0,1-7.07,3.44c-2.5-1-4.85-2.37-7.47-3.11a9.64,9.64,0,0,0-6.07-.1,4.33,4.33,0,0,0-3,3.43,4,4,0,0,0,1.75,4.17,26.51,26.51,0,0,0,6.28,3c4,1.55,7.94,3,11.49,5.46,8.11,5.6,6.5,16,1.55,21C175.4,84.66,169.94,86.07,163.34,86.2Z"/><path class="g" d="M89.44,8.93c-.19.81-1,.66-1.46.75a116.32,116.32,0,0,0-21.26,6.58,92.63,92.63,0,0,1-18.55,5.08A118,118,0,0,1,31.89,23a106,106,0,0,1-14.16-.57,37.17,37.17,0,0,1-4.59-.64,52.55,52.55,0,0,1,16.51-14C48.77-2.57,68-2.53,87.25,7.53,88,7.93,88.71,8.46,89.44,8.93Z"/><path class="h" d="M59.47,42c7.68-2.22,14.89-5.78,22.64-7.8a117.61,117.61,0,0,1,27.75-3.81A47.29,47.29,0,0,1,115,42.68a104.7,104.7,0,0,1-18.08,3,107.32,107.32,0,0,1-36.13-3.29C60.31,42.29,59.9,42.11,59.47,42Z"/><path class="i" d="M223.08,108.28a2,2,0,0,1,2,.45,2.17,2.17,0,0,0,2.65.44A2.36,2.36,0,0,0,229,106.6a3.62,3.62,0,0,1-3.8.88,3.93,3.93,0,0,1-2.15-5.33,3.64,3.64,0,0,1,5.33-1.55c.44.26.56.42.77-.19.13-.36.66-.23,1-.18s.36.47.35.78c0,2.1,0,4.21-.08,6.31a3.5,3.5,0,0,1-3.17,3.27A3.62,3.62,0,0,1,223.08,108.28Zm6-4.49a2.38,2.38,0,0,0-2.49-2.48,2.52,2.52,0,0,0,.1,5A2.38,2.38,0,0,0,229.1,103.79Z"/><path class="i" d="M267.38,100.88c0-.91,0-1.68,0-2.45,0-.54.06-.86.72-.85s.78.21.77.81c0,2.75,0,5.5,0,8.24,0,.3.1.69-.33.81s-.81.2-1-.19c-.3-.65-.57-.29-.92-.09a3.63,3.63,0,0,1-4.62-.68,4.14,4.14,0,0,1-.18-5.09,3.69,3.69,0,0,1,4.58-1Zm-2.49,5.47a2.47,2.47,0,0,0,2.6-2.44,2.54,2.54,0,0,0-2.44-2.62,2.51,2.51,0,0,0-2.58,2.47A2.43,2.43,0,0,0,264.89,106.35Z"/><path class="j" d="M194.22,104.32c-.73,0-1.46,0-2.19,0-.89,0-.88.4-.56,1a2.49,2.49,0,0,0,3.7.54c.3-.27.48-.69,1-.65.26,0,.58-.12.74.17s-.08.42-.2.61a3.77,3.77,0,0,1-4.58,1.42,3.85,3.85,0,1,1,5.27-3.87c0,.63-.28.79-.83.77C195.77,104.3,195,104.32,194.22,104.32Zm-.37-3.12a2.55,2.55,0,0,0-2.33,1c-.34.5-.42.95.45.93s1.64,0,2.46,0c.46,0,1.17.33,1.33-.26s-.46-1-1-1.36A2,2,0,0,0,193.85,101.2Z"/><path class="j" d="M253.14,104.32c-.73,0-1.46,0-2.19,0-.29,0-.69-.13-.82.27s.12.61.3.87a2.47,2.47,0,0,0,3.52.45c.28-.22.4-.66.82-.68s.73-.07.91.1-.08.57-.25.81a3.71,3.71,0,0,1-4.63,1.17,3.84,3.84,0,0,1,2-7.31,3.74,3.74,0,0,1,3.45,3.33c.07.68-.12,1-.88,1S253.87,104.32,253.14,104.32Zm-.79-1.15a3.68,3.68,0,0,0,.68,0c.54-.1,1.46.34,1.56-.29.13-.81-.68-1.33-1.46-1.56a2.34,2.34,0,0,0-2.2.38c-.4.31-.9.68-.74,1.2s.79.2,1.2.27A6,6,0,0,0,252.35,103.16Z"/><path class="k" d="M242,100.93a3.39,3.39,0,0,1,4-.54c1.23.64,1.33,1.86,1.32,3.09s0,2.2,0,3.29c0,.51-.14.75-.7.73s-.74-.2-.72-.73c0-1.14,0-2.29,0-3.43-.05-1.38-.71-2-1.89-2a1.89,1.89,0,0,0-1.94,2c0,1.1,0,2.19,0,3.29,0,.52-.06.87-.73.86s-.7-.4-.7-.9c0-2.74,0-5.49,0-8.23,0-.62.22-.78.79-.78s.65.31.64.78C242,99.13,242,99.89,242,100.93Z"/><path class="k" d="M168,100a3.74,3.74,0,0,1,3.85,3.79,3.87,3.87,0,0,1-7.74.08A3.69,3.69,0,0,1,168,100Zm-2.48,3.76a2.47,2.47,0,1,0,4.94.06,2.53,2.53,0,0,0-2.38-2.52A2.47,2.47,0,0,0,165.52,103.77Z"/><path class="k" d="M274.26,100a3.72,3.72,0,0,1,3.7,3.92,3.87,3.87,0,0,1-7.74-.21A3.71,3.71,0,0,1,274.26,100Zm-2.63,3.75a2.47,2.47,0,1,0,4.94.08,2.47,2.47,0,1,0-4.94-.08Z"/><path class="k" d="M181.72,103.81c0-.92,0-1.83,0-2.75s.73-1.12,1.19-.67.59.22.94,0A2.91,2.91,0,0,1,188.4,103c.05,1.19,0,2.38,0,3.57,0,.53.05,1-.74,1s-.68-.55-.69-1c0-1.05,0-2.1,0-3.16a1.75,1.75,0,0,0-1.8-2,1.81,1.81,0,0,0-2,1.92c-.07,1.14,0,2.29,0,3.43,0,.44,0,.82-.62.83s-.81-.22-.79-.81C181.75,105.73,181.72,104.77,181.72,103.81Z"/><path class="k" d="M214.67,103.78c0-.92,0-1.83,0-2.75s.55-1.1,1-.75c.6.49.88.25,1.42,0a2.9,2.9,0,0,1,4.3,2.58c0,1.28,0,2.56,0,3.84,0,.45,0,.8-.63.8s-.81-.22-.79-.81c0-1.14,0-2.29,0-3.43s-.72-1.94-1.83-1.94a1.86,1.86,0,0,0-2,2c-.05,1.1,0,2.2,0,3.29,0,.48,0,.91-.68.93s-.77-.43-.76-1C214.69,105.61,214.67,104.69,214.67,103.78Z"/><path class="j" d="M155.61,103.78a3.7,3.7,0,0,1,2.77-3.64,3.9,3.9,0,0,1,4.42,1.69c.15.27.47.57.21.86s-.72.19-1,.07-.46-.42-.68-.64a2.41,2.41,0,0,0-3.55-.09,2.65,2.65,0,0,0,0,3.61,2.53,2.53,0,0,0,3.57-.1c.19-.19.33-.51.55-.58a1.4,1.4,0,0,1,1,0c.41.28,0,.66-.16.95a3.89,3.89,0,0,1-4.32,1.64A3.8,3.8,0,0,1,155.61,103.78Z"/><path class="j" d="M173.24,103.77c0-.92,0-1.83,0-2.74s.62-1.09,1-.74c.6.54.88.25,1.39,0a2.87,2.87,0,0,1,4.27,2.45c.09,1.32,0,2.65.05,4,0,.43,0,.82-.62.81s-.82-.2-.81-.8c0-1.14,0-2.29,0-3.43a1.73,1.73,0,0,0-1.83-1.94,1.84,1.84,0,0,0-2,2c0,1.1,0,2.2,0,3.29,0,.49,0,.91-.69.91s-.76-.32-.75-.86C173.26,105.69,173.24,104.73,173.24,103.77Z"/><path class="j" d="M198.23,103.73a3.73,3.73,0,0,1,2.7-3.56,3.9,3.9,0,0,1,4.45,1.59c.18.29.56.65.2,1a1,1,0,0,1-1.16,0c-.19-.11-.28-.35-.45-.51a2.47,2.47,0,0,0-3.66-.1,2.7,2.7,0,0,0,.11,3.62,2.54,2.54,0,0,0,3.57-.18c.13-.13.19-.33.33-.43a1,1,0,0,1,1.26-.07c.34.3-.06.67-.24,1a3.93,3.93,0,0,1-4.34,1.58A3.88,3.88,0,0,1,198.23,103.73Z"/><path class="i" d="M285.81,100a2.25,2.25,0,0,1,2.05.87c.25.36.63.84.15,1.18a.78.78,0,0,1-1.17-.31.9.9,0,0,0-.72-.55,1,1,0,0,0-1.18.49c-.26.51.07.9.51,1.11s1.12.4,1.67.61a2,2,0,0,1,1.3,2.53,2.3,2.3,0,0,1-2.49,1.73,2.47,2.47,0,0,1-2.56-1.68c-.08-.21-.13-.5.15-.59a1,1,0,0,1,1,.07c.2.17.27.48.46.66a1.24,1.24,0,0,0,1.4.26.93.93,0,0,0,.65-.95,1.09,1.09,0,0,0-.82-1c-.38-.15-.77-.29-1.16-.42-1.07-.34-1.78-1-1.64-2.18A2.25,2.25,0,0,1,285.81,100Z"/><path class="j" d="M207.64,104.37c0-.64,0-1.28,0-1.92s.12-1.25-.84-1.17c-.33,0-.49-.2-.49-.52s.09-.52.34-.5c1.22.1,1-.76,1-1.45,0-.53-.28-1.25.76-1.22s.6.71.65,1.17c.08.66-.3,1.58,1,1.46.37,0,.41.29.41.57s-.14.54-.49.5c-.92-.1-.9.5-.89,1.13,0,1.42,0,2.84,0,4.25,0,.44,0,.82-.62.83s-.83-.21-.8-.81C207.66,105.92,207.64,105.15,207.64,104.37Z"/><path class="i" d="M236.74,104.27c0-.68,0-1.37,0-2.05s0-1-.76-.95a.46.46,0,0,1-.56-.44c0-.3.06-.61.4-.59,1.26.07.85-.84.93-1.49.06-.47-.3-1.13.66-1.17s.74.66.77,1.19c0,.68-.26,1.56,1,1.45.37,0,.38.31.39.59s-.17.51-.51.47c-.94-.11-.87.52-.86,1.13q0,2,0,4c0,.52.18,1.15-.73,1.12s-.67-.68-.69-1.18C236.72,105.64,236.74,105,236.74,104.27Z"/><path class="k" d="M279.87,104.27c0-.68,0-1.37,0-2.05s0-1-.77-.94a.45.45,0,0,1-.55-.45c0-.3.06-.6.41-.58,1.14.08.85-.72.93-1.36.06-.49-.41-1.25.66-1.29s.72.69.75,1.21c0,.69-.24,1.56,1,1.44.37,0,.38.32.38.59a.42.42,0,0,1-.52.46c-.94-.11-.86.53-.86,1.14,0,1.28,0,2.55,0,3.83,0,.52.3,1.28-.73,1.25s-.63-.81-.67-1.31S279.87,104.91,279.87,104.27Z"/><path class="j" d="M212.86,103.94c0,1,0,1.92,0,2.88,0,.43-.08.7-.6.68s-.79-.09-.79-.67q0-2.94,0-5.89c0-.51.17-.74.71-.75s.7.24.69.74C212.85,101.94,212.86,102.94,212.86,103.94Z"/><path class="j" d="M212.85,98.27c.06.55-.05.82-.64.82s-.72-.32-.74-.85.31-.64.77-.66S212.95,97.85,212.85,98.27Z"/></svg>